<?xml version="1.0" encoding="utf-8"?>
<!-- Generator: Adobe Illustrator 22.1.0, SVG Export Plug-In . SVG Version: 6.00 Build 0)  -->
<svg version="1.1" id="Layer_1" xmlns="http://www.w3.org/2000/svg" xmlns:xlink="http://www.w3.org/1999/xlink" x="0px" y="0px"
	 viewBox="0 0 512 512" style="enable-background:new 0 0 512 512;" xml:space="preserve">
<style type="text/css">
	.st0{fill:#FFFFFF;}
</style>
<g>
	<g>
		<path class="st0" d="M437,75C388.7,26.6,324.4,0,256,0S123.3,26.6,75,75C26.6,123.3,0,187.6,0,256c0,68.4,26.6,132.7,75,181
			c48.3,48.3,112.6,75,181,75c68.4,0,132.7-26.6,181-75c48.3-48.3,75-112.6,75-181C512,187.6,485.4,123.3,437,75L437,75z
			 M425.7,425.7C380.4,471,320.1,496,256,496c-64.1,0-124.4-25-169.7-70.3C41,380.4,16,320.1,16,256c0-64.1,25-124.4,70.3-169.7
			S191.9,16,256,16c64.1,0,124.4,25,169.7,70.3C471,131.6,496,191.9,496,256C496,320.1,471,380.4,425.7,425.7L425.7,425.7z"/>
	</g>
	<g>
		<path class="st0" d="M323.2,127.7h-134c-34,0-61.6,27.6-61.6,61.6v134c0,34,27.6,61.6,61.6,61.6h134c34,0,61.6-27.6,61.6-61.6
			v-134C384.8,155.3,357.2,127.7,323.2,127.7z M368.6,323.2c0,25-20.4,45.4-45.4,45.4h-134c-25,0-45.4-20.4-45.4-45.4v-134
			c0-25,20.4-45.4,45.4-45.4h134c25,0,45.4,20.4,45.4,45.4V323.2z"/>
		<path class="st0" d="M328.1,174.7c-5.4,0-9.9,4.4-9.9,9.9s4.4,9.9,9.9,9.9c5.4,0,9.9-4.4,9.9-9.9
			C338,179.1,333.6,174.7,328.1,174.7z"/>
		<path class="st0" d="M256.2,193.2c-34.8,0-63,28.3-63,63c0,34.8,28.3,63,63,63c34.8,0,63-28.3,63-63
			C319.3,221.5,291,193.2,256.2,193.2z M256.2,303.1c-25.8,0-46.8-21-46.8-46.8c0-25.8,21-46.8,46.8-46.8c25.8,0,46.8,21,46.8,46.8
			C303.1,282.1,282.1,303.1,256.2,303.1z"/>
	</g>
</g>
</svg>
