<?xml version="1.0" encoding="utf-8"?>
<!-- Generator: Adobe Illustrator 22.1.0, SVG Export Plug-In . SVG Version: 6.00 Build 0)  -->
<svg version="1.1" id="Calque_1" xmlns="http://www.w3.org/2000/svg" xmlns:xlink="http://www.w3.org/1999/xlink" x="0px" y="0px"
	 viewBox="0 0 253 65" style="enable-background:new 0 0 253 65;" xml:space="preserve">
<style type="text/css">
	.st0{fill:none;}
	.st1{font-family:'Gotham-Bold';}
	.st2{font-size:10.738px;}
	.st3{letter-spacing:1;}
</style>
<path d="M12,36.1h14.4v10.2H0V0h12V36.1z"/>
<path d="M42.2,38.2l-3.2,8H26.2L44,0h13.1l17.4,46.3H61.7l-3-8H42.2V38.2z M50.6,14.3L50.6,14.3L45.5,29h10L50.6,14.3z"/>
<path d="M90.3,46.2h-12V16l12,0.3V46.2z"/>
<path d="M116.6,46.2h-12v-36H78.3V0h48.2v10.2h-9.9V46.2z"/>
<path d="M142.9,10.2v7.7h13.6v10.2h-13.6v8h14.3v10.2h-26.3V0h26.3v10.2H142.9z"/>
<path d="M203.1,46.2h-15l-11.3-17.8h-0.1v17.8h-12V0h18c9.1,0,16.1,4.4,16.1,14.2c0,6.4-3.6,11.9-10.1,13.1L203.1,46.2z M176.7,20.7
	h1.2c3.9,0,8.3-0.7,8.3-5.8s-4.4-5.8-8.3-5.8h-1.2V20.7z"/>
<path d="M218.4,46.2h-12V0h12V46.2z"/>
<path d="M238.3,10.2v7.7h13.6v10.2h-13.6v8h14.3v10.2h-26.3V0h26.3v10.2H238.3z"/>
<rect x="17" y="59.1" class="st0" width="219" height="54.1"/>
<text transform="matrix(1 0 0 1 59.2606 64.9646)" class="st1 st2 st3">SALLE DE CONCERTS</text>
</svg>
