<?xml version="1.0" encoding="utf-8"?>
<!-- Generator: Adobe Illustrator 22.1.0, SVG Export Plug-In . SVG Version: 6.00 Build 0)  -->
<svg version="1.1" id="Calque_1" xmlns="http://www.w3.org/2000/svg" xmlns:xlink="http://www.w3.org/1999/xlink" x="0px" y="0px"
	 viewBox="0 0 265 84" style="enable-background:new 0 0 265 84;" xml:space="preserve">
<style type="text/css">
	.st0{fill:none;}
	.st1{font-family:'Gotham-Bold';}
	.st2{font-size:10.738px;}
	.st3{letter-spacing:1;}
</style>
<path d="M17,43h14.4v10.2H5V6.9h12V43z"/>
<path d="M47.2,45.1l-3.2,8H31.2L49,6.9h13.1l17.4,46.3H66.7l-3-8H47.2V45.1z M55.6,21.2L55.6,21.2l-5.1,14.7h10L55.6,21.2z"/>
<path d="M95.3,53.1h-12V22.9l12,0.3V53.1z"/>
<path d="M121.6,53.1h-12v-36H83.3V6.9h48.2v10.2h-9.9V53.1z"/>
<path d="M147.9,17.1v7.7h13.6V35h-13.6v8h14.3v10.2h-26.3V6.9h26.3v10.2H147.9z"/>
<path d="M208.1,53.1h-15l-11.3-17.8h-0.1v17.8h-12V6.9h18c9.1,0,16.1,4.4,16.1,14.2c0,6.4-3.6,11.9-10.1,13.1L208.1,53.1z
	 M181.7,27.6h1.2c3.9,0,8.3-0.7,8.3-5.8s-4.4-5.8-8.3-5.8h-1.2V27.6z"/>
<path d="M223.4,53.1h-12V6.9h12V53.1z"/>
<path d="M243.3,17.1v7.7h13.6V35h-13.6v8h14.3v10.2h-26.3V6.9h26.3v10.2H243.3z"/>
<rect x="22" y="66" class="st0" width="219" height="54.1"/>
<text transform="matrix(1 0 0 1 54.2606 71.8646)" class="st1 st2 st3">Salle de concerts</text>
</svg>
