<?xml version="1.0" encoding="utf-8"?>
<!-- Generator: Adobe Illustrator 22.1.0, SVG Export Plug-In . SVG Version: 6.00 Build 0)  -->
<svg version="1.1" id="Capa_1" xmlns="http://www.w3.org/2000/svg" xmlns:xlink="http://www.w3.org/1999/xlink" x="0px" y="0px"
	 viewBox="0 0 512 512" style="enable-background:new 0 0 512 512;" xml:space="preserve">
<style type="text/css">
	.st0{fill:#FFFFFF;}
</style>
<g>
	<g>
		<path class="st0" d="M512,256C512,114.6,397.4,0,256,0C114.6,0,0,114.6,0,256c0,141.4,114.6,256,256,256
			C397.4,512,512,397.4,512,256z M23.3,256C23.3,127.5,127.5,23.3,256,23.3S488.7,127.5,488.7,256S384.5,488.7,256,488.7
			S23.3,384.5,23.3,256z"/>
	</g>
</g>
<g>
	<g>
		<path class="st0" d="M176.5,157c16.1,0,31.7,2.1,46.6,6.3C238,167.4,252,173.3,265,181c13,7.6,24.9,16.8,35.6,27.5
			c10.7,10.7,19.8,22.5,27.5,35.6c7.6,13,13.5,27,17.7,41.9c4.2,14.9,6.3,30.5,6.3,46.6c0,5.1-1.8,9.4-5.4,13.1s-8,5.4-13.1,5.4
			c-5.1,0-9.4-1.8-13.1-5.4c-3.6-3.6-5.4-8-5.4-13.1c0-12.7-1.7-25-5-36.8c-3.3-11.8-8-22.9-14-33.1c-6-10.3-13.2-19.6-21.6-28
			c-8.4-8.4-17.8-15.6-28-21.6c-10.3-6-21.3-10.7-33.1-14c-11.8-3.3-24.1-5-36.8-5c-5.1,0-9.4-1.8-13.1-5.4c-3.6-3.6-5.4-8-5.4-13.1
			s1.8-9.4,5.4-13.1C167,158.8,171.4,157,176.5,157z M176.5,226.8c14.6,0,28.3,2.8,41.1,8.4s24,13.2,33.5,22.7
			c9.6,9.6,17.1,20.7,22.7,33.5c5.6,12.8,8.4,26.5,8.4,41.1c0,5.1-1.8,9.4-5.4,13.1c-3.6,3.6-8,5.4-13.1,5.4
			c-5.1,0-9.4-1.8-13.1-5.4c-3.6-3.6-5.4-8-5.4-13.1c0-9.5-1.8-18.4-5.4-26.7c-3.6-8.3-8.5-15.6-14.8-21.9
			c-6.2-6.2-13.5-11.1-21.9-14.8c-8.3-3.6-17.3-5.4-26.7-5.4c-5.1,0-9.4-1.8-13.1-5.4c-3.6-3.6-5.4-8-5.4-13.1s1.8-9.4,5.4-13.1
			C167,228.6,171.4,226.8,176.5,226.8z M210.4,323.8c0,3.7-0.7,7.1-2,10.2c-1.3,3.1-3.2,5.8-5.5,8.2c-2.3,2.3-5.1,4.2-8.3,5.5
			c-3.2,1.3-6.5,2-10.1,2c-3.7,0-7.1-0.7-10.2-2c-3.1-1.3-5.8-3.2-8.2-5.5c-2.3-2.3-4.2-5.1-5.5-8.2c-1.3-3.1-2-6.5-2-10.2
			c0-3.5,0.7-6.9,2-10.1c1.3-3.2,3.2-5.9,5.5-8.3c2.3-2.3,5.1-4.2,8.2-5.5c3.1-1.3,6.5-2,10.2-2c3.5,0,6.9,0.7,10.1,2
			c3.2,1.3,5.9,3.2,8.3,5.5c2.3,2.3,4.2,5.1,5.5,8.3C209.8,316.9,210.4,320.3,210.4,323.8z"/>
	</g>
</g>
</svg>
